<svg height="24" viewBox="0 0 24 24" width="24" xmlns="http://www.w3.org/2000/svg"><path d="m23.9437 12.0529c-.0264 6.6284-5.419 11.9735-12.0246 11.947-6.60554-.0265-11.9453723-5.4244-11.91900275-12.0528.02636955-6.62841 5.41894275-11.9734628 12.02450275-11.94700218 6.6188.02646068 11.9454 5.42443218 11.9191 12.05280218z" fill="#221f1f"/><path d="m16.2832 17.9402c-1.2658 2.2757-2.8347 4.1411-4.5883 4.1014-1.0944-.0264-2.13596-.4366-3.08526-1.0848.30325-.5557 2.21506-3.3341 7.67356-3.0166zm7.3439-5.8875c-.0264 6.4432-5.2739 11.656-11.7081 11.6163-6.43416-.0265-11.602594-5.2789-11.602594-11.7221 0-4.18078 2.083194-7.18406 4.060914-8.79816 2.426-1.97132 4.0741-.46306 4.65423.68797-.06593-.48952-.2637-1.89193-.80427-2.897438 1.18663-.41014 2.46552-.635055 3.79722-.621825 6.4342.039691 11.629 5.278903 11.6026 11.735253zm-12.275-6.72096c1.6876-1.15104 4.6015-1.78609 6.1441.62183-.9361-5.50382-4.9839-2.34177-6.1441-.62183zm-2.34692 5.19956c.35599-.397.76472-.79386 1.23932-1.15108 2.1096-1.62733 4.417-2.03747 5.1685-.89966.29.4366.3032 1.04519.0791 1.70674.7515-1.24368.9889-2.39472.5274-3.02977-.7779-1.05843-3.1907-.33076-5.3926 1.62732-.64605.54245-1.18662 1.15104-1.62172 1.74645zm-3.67856.979c1.06797.1985 2.22823-1.1643 2.58422-3.06943.35599-1.90517-.21095-3.59865-1.27892-3.81034-1.06797-.19845-2.22823 1.16427-2.58422 3.06944-.35599 1.89194.21096 3.59863 1.27892 3.81033zm14.84608-2.30207c-10.21822 6.86657-17.27208 3.38697-17.27208 3.38697-.10547 2.3814 3.96862 9.6978 8.82058 9.7904 4.8652.0926 8.4515-13.17737 8.4515-13.17737zm-15.83493-1.46857c.32962-1.7464 1.33166-3.01651 2.24141-2.83129.90975.17199 1.3844 1.73317 1.06797 3.47958-.32962 1.74635-1.33167 3.01655-2.24142 2.83125-.92293-.172-1.39758-1.73314-1.06796-3.47954zm1.93816 1.48179c.40873.09262.85701-.41013 1.01523-1.11134.15821-.70121-.05274-1.34949-.46147-1.42888-.27688-.06615-.56695.14554-.7779.50276.18458.09261.27688.33075.18458.52921-.0791.18522-.26369.27784-.44828.23814-.07911.62183.11866 1.1775.48784 1.27011z" fill="#05bc52"/></svg>